<?xml version="1.0" encoding="utf-8"?>
<!-- Generator: Adobe Illustrator 16.0.0, SVG Export Plug-In . SVG Version: 6.00 Build 0)  -->
<!DOCTYPE svg PUBLIC "-//W3C//DTD SVG 1.1//EN" "http://www.w3.org/Graphics/SVG/1.1/DTD/svg11.dtd">
<svg version="1.1" id="Layer_1" xmlns="http://www.w3.org/2000/svg" xmlns:xlink="http://www.w3.org/1999/xlink" x="0px" y="0px"
   width="340px" height="180px" viewBox="0 0 640 480" enable-background="new 0 0 640 480" xml:space="preserve">
<path fill="#F8BF15" d="M499.066,236.868c0.277-0.856,0.414-1.356,0.414-1.427C497.39,107.705,417.877,5,320.091,5
  c-97.75,0-177.243,102.637-179.383,230.315"/>
<path fill="#F8BF15" stroke="#231F20" stroke-width="0.25" stroke-miterlimit="10" d="M318.608,476.178
  c0.496,0.018,0.99,0.022,1.482,0.022"/>
<polygon fill="#654427" points="145.801,221.904 249.244,87.485 286.04,130.255 286.04,138.655 256.186,179.897 258.964,182.572 
  362.406,47.388 491.882,215.795 "/>
<path fill="#654427" d="M5.217,262.385l2.583-0.749c0,0,60.54-21.671,81.419-23.691c20.879-2.021,173.562-16.802,173.562-16.802
  h64.565l144.402,6.875l81.227,14.75l81.228,19.618c0,0,6.463,2.525-9.025,0c-15.488-2.522-70.812-10.22-70.812-10.22l-65.261-7.396
  l-64.563-3.004H252.367l-81.227,3.004l-77.756,5.396L5.217,262.385z"/>
<polygon fill="#CEC92A" points="87.137,238.089 148.23,220.759 174.612,216.94 177.736,208.921 181.902,213.504 191.274,213.504 
  193.703,215.795 200.992,213.121 211.407,211.975 216.613,203.956 224.944,212.74 229.457,203.956 233.275,211.975 247.507,211.975 
  252.02,214.649 256.879,213.504 262.086,212.358 273.888,212.74 279.095,221.904 "/>
<path fill="#CEC92A" d="M277.012,221.523l7.984-6.492h13.192l6.594-4.582h18.745l6.942-4.583l9.372-9.165l1.736,8.783l10.066-8.783
  l12.495,7.255l10.415-0.763l5.899-8.784l6.249,4.201l7.288-9.166l4.861,9.547c0,0,2.775-0.001,3.817,0.382
  c1.043,0.382,4.513-0.382,4.513-0.382l4.163-7.255l2.779,12.603h9.374h19.09l9.373,5.727l12.842-1.527l10.416,3.82l7.289,3.054
  l12.844,3.819l45.43,21.767l-70.778-12.221L277.012,221.523z"/>
<polygon fill="#FFFFFF" points="164.547,202.436 248.203,91.31 269.378,119.186 250.287,106.007 214.881,160.429 214.881,146.873 
  "/>
<polygon fill="#FFFFFF" points="278.751,166.539 359.977,59.614 470.362,193.271 403.021,127.97 406.144,150.882 367.265,85.964 
  337.066,128.733 345.051,99.329 "/>
<polygon fill="#CEC92A" points="525.209,231.458 523.819,215.947 513.057,212.366 505.422,197.472 501.604,170.741 507.853,159.285 
  501.604,138.281 513.405,128.733 513.405,115.172 518.614,89.783 523.127,65.343 531.802,88.255 531.802,104.675 537.009,118.424 
  540.481,129.498 538.397,137.518 541.872,144.391 546.033,157.375 546.033,171.122 540.481,180.668 540.481,189.452 
  546.033,190.979 546.033,198.618 546.033,207.401 539.439,210.838 529.719,214.274 529.374,229.931 528.678,234.132 "/>
<polygon fill="#CEC92A" points="120.116,227.639 120.116,211.981 111.785,211.981 104.495,194.415 101.719,171.503 107.273,160.811 
  107.273,147.445 113.521,132.354 116.645,109.257 120.116,92.835 126.018,101.619 126.018,118.422 130.183,129.878 133.653,140.189 
  135.042,150.5 138.167,158.519 138.167,176.466 136.084,183.723 136.084,191.737 138.167,203.961 135.042,209.31 122.894,211.981 
  122.894,225.725 "/>
<g>
  <path fill="#654427" d="M27.854,323.22l18.61-30.542c-4.231,0.179-8.686,0.849-13.363,2.013s-8.686,2.406-12.02,3.726
    c-3.335,1.32-6.316,2.573-8.939,3.759c-2.624,1.188-4.506,2.024-5.645,2.518c-0.284,0-0.57-0.109-0.854-0.335
    c-0.285-0.225-0.427-0.492-0.427-0.807c0-0.356,0.946-2.551,2.838-6.578c1.891-4.027,4.118-8.347,6.681-12.954
    c14.238-5.595,26.807-8.393,37.708-8.393c12.61,0,21.357,2.955,26.239,8.86c1.748,2.06,3.101,4.601,4.057,7.619
    c0.955,3.021,1.435,6.008,1.435,8.964c0,6.712-1.273,12.81-3.815,18.291c-2.542,5.482-6.172,10.236-10.891,14.264
    c-4.72,4.026-10.272,7.104-16.658,9.231c-6.386,2.124-13.384,3.188-20.99,3.188c-1.342,0-4.087-0.271-8.237-0.806l-5.491,11.008
    c0.569,0.94,0.854,1.703,0.854,2.284c0,1.385-0.285,2.55-0.854,3.488c-0.815,1.344-1.892,3.111-3.234,5.303
    c-1.342,2.195-2.249,3.649-2.715,4.366c-0.468,0.715-0.999,1.341-1.587,1.878c-0.589,0.536-1.169,0.806-1.739,0.806
    c-1.18,0-1.932-0.392-2.257-1.175c-0.326-0.782-0.488-1.868-0.488-3.257c0-1.968,0.885-5.091,2.655-9.364
    c1.769-4.271,4.443-9.945,8.023-17.016c-1.914-0.806-3.396-1.856-4.454-3.154c-1.058-1.299-1.587-2.573-1.587-3.826
    c0-2.775,1.444-5.348,4.333-7.719C17.929,326.485,22.2,324.606,27.854,323.22z M34.2,325.032l-3.478,6.444
    c1.546,0.088,2.918,0.181,4.119,0.269c1.199,0.09,2.206,0.134,3.021,0.134c7.118,0,13.291-1.051,18.519-3.156
    c5.227-2.101,9.375-4.708,12.448-7.818c3.071-3.111,5.298-6.231,6.681-9.365c1.383-3.133,2.075-5.751,2.075-7.854
    c0-2.908-1.059-5.191-3.173-6.847c-2.116-1.656-5.156-2.786-9.122-3.389c-3.966-0.606-9.083-0.907-15.346-0.907
    c0.082,0.491,0.123,1.096,0.123,1.812c0,2.327-1.119,5.394-3.357,9.196l-10.616,18.327l7.993-1.008
    c0.649,0,0.975,0.335,0.975,1.008c0,0.582-0.528,0.983-1.585,1.208L34.2,325.032z"/>
  <path fill="#654427" d="M85.455,329.932c6.183-6.176,12.183-10.762,18-13.761c5.817-2.997,10.312-4.497,13.484-4.497
    c0.854,0,1.648,0.392,2.38,1.175s1.312,1.69,1.739,2.719c0.426,1.029,0.641,1.79,0.641,2.281c0,0.806-0.286,1.399-0.855,1.779
    c-0.57,0.38-1.567,0.839-2.99,1.377c0.284,0.717,0.651,1.633,1.1,2.751c0.447,1.119,0.792,2.026,1.037,2.719
    c0.244,0.692,0.366,1.31,0.366,1.848c0,1.073-0.986,3.075-2.959,6.006c-1.973,2.934-3.355,5.094-4.15,6.477
    c-0.792,1.389-1.188,3.09-1.188,5.104c0,3.311,1.381,4.966,4.149,4.966c2.846,0,7.301-2.93,13.363-8.792v4.094
    c-10.293,12.575-17.656,18.864-22.088,18.864c-1.586,0-2.716-0.57-3.387-1.714c-0.671-1.14-1.007-2.831-1.007-5.068
    c0-3.535,1.159-8.659,3.478-15.371c-5.939,7.25-10.352,12.406-13.24,15.473c-2.889,3.065-5.269,4.598-7.139,4.598
    c-0.896,0-2.013-0.851-3.356-2.55c-1.343-1.701-2.533-3.903-3.57-6.612c-1.037-2.708-1.556-5.516-1.556-8.424
    c0-2.104,0.182-3.86,0.549-5.271c0.366-1.408,1.076-2.852,2.136-4.33C81.448,334.295,83.136,332.349,85.455,329.932z
     M114.682,322.549c-10.576,5.324-18.112,9.845-22.606,13.559c-4.495,3.715-6.742,7.541-6.742,11.479
    c0,1.432,0.222,2.607,0.671,3.523c0.447,0.918,1.056,1.377,1.831,1.377c0.447,0,1.241-0.313,2.379-0.938
    c4.272-2.775,8.177-6.39,11.716-10.844C105.469,336.253,109.719,330.201,114.682,322.549z"/>
  <path fill="#654427" d="M150.438,307.109h2.624c2.156-4.252,4.108-7.262,5.858-9.029c1.748-1.768,3.743-2.65,5.979-2.65
    c2.237,0,3.356,0.56,3.356,1.678c0,0.538-0.875,1.992-2.624,4.363c-1.75,2.371-3.072,4.361-3.966,5.975
    c1.381,0.18,2.614,0.336,3.692,0.469c1.077,0.135,1.921,0.247,2.532,0.337c-2.319,4.743-5.227,9.598-8.726,14.565
    c-1.14-0.089-2.096-0.167-2.868-0.233c-0.773-0.067-1.556-0.135-2.349-0.202c-0.793-0.067-1.761-0.147-2.898-0.236
    c-2.197,3.895-4.038,7.375-5.522,10.44c-1.486,3.063-2.623,5.872-3.417,8.424c-0.793,2.55-1.19,4.967-1.19,7.248
    c0,3.088,1.119,4.634,3.357,4.634c1.545,0,3.569-0.909,6.071-2.72c2.501-1.812,5.848-4.598,10.037-8.357v4.497
    c-10.982,13.112-19.098,19.669-24.345,19.669c-1.831,0-3.305-0.784-4.424-2.348c-1.12-1.568-1.678-3.581-1.678-6.043
    c0-1.655,0.314-3.625,0.945-5.906c0.631-2.284,1.759-5.729,3.387-10.34c-0.571,0.537-1.108,1.063-1.617,1.578
    c-0.51,0.515-0.977,0.985-1.404,1.409c-0.427,0.425-0.884,0.873-1.372,1.343c-0.489,0.47-0.977,0.951-1.464,1.444v-4.633
    c4.271-3.938,9.436-10.851,15.498-20.741c-0.61-0.044-1.181-0.078-1.708-0.101c-0.528-0.021-1.16-0.034-1.892-0.034
    c-2.401,0-4.19,0.18-5.369,0.536c-0.489,0.135-0.946,0.281-1.373,0.438c-0.427,0.155-0.723,0.233-0.885,0.233
    s-0.244-0.134-0.244-0.402c0-1.477,0.833-3.692,2.502-6.646c1.343-2.505,2.613-4.363,3.813-5.571
    c1.199-1.208,2.664-2.025,4.393-2.45C144.876,307.321,147.306,307.109,150.438,307.109z"/>
  <path fill="#654427" d="M167.402,329.932c6.183-6.176,12.182-10.762,18-13.761c5.817-2.997,10.312-4.497,13.484-4.497
    c0.855,0,1.648,0.392,2.381,1.175c0.732,0.783,1.312,1.69,1.739,2.719c0.427,1.029,0.641,1.79,0.641,2.281
    c0,0.806-0.285,1.399-0.854,1.779c-0.57,0.38-1.566,0.839-2.989,1.377c0.284,0.717,0.649,1.633,1.098,2.751
    c0.448,1.119,0.794,2.026,1.038,2.719c0.244,0.692,0.365,1.31,0.365,1.848c0,1.073-0.985,3.075-2.959,6.006
    c-1.974,2.934-3.355,5.094-4.15,6.477c-0.792,1.389-1.189,3.09-1.189,5.104c0,3.311,1.381,4.966,4.149,4.966
    c2.846,0,7.3-2.93,13.363-8.792v4.094c-10.292,12.575-17.656,18.864-22.089,18.864c-1.586,0-2.715-0.57-3.387-1.714
    c-0.67-1.14-1.006-2.831-1.006-5.068c0-3.535,1.159-8.659,3.478-15.371c-5.941,7.25-10.353,12.406-13.241,15.473
    c-2.889,3.065-5.269,4.598-7.139,4.598c-0.895,0-2.014-0.851-3.356-2.55c-1.342-1.701-2.532-3.903-3.569-6.612
    c-1.038-2.708-1.556-5.516-1.556-8.424c0-2.104,0.183-3.86,0.549-5.271c0.367-1.408,1.078-2.852,2.136-4.33
    C163.395,334.295,165.083,332.349,167.402,329.932z M196.629,322.549c-10.578,5.324-18.114,9.845-22.607,13.559
    c-4.495,3.715-6.743,7.541-6.743,11.479c0,1.432,0.222,2.607,0.671,3.523c0.447,0.918,1.058,1.377,1.831,1.377
    c0.448,0,1.241-0.313,2.38-0.938c4.271-2.775,8.176-6.39,11.715-10.844C187.415,336.253,191.666,330.201,196.629,322.549z"/>
  <path fill="#654427" d="M259.476,346.445l-20.257,18.325c-5.696,10.831-10.881,18.918-15.559,24.266
    c-4.678,5.35-8.156,8.022-10.434,8.022c-1.22,0-1.831-0.829-1.831-2.484c0-3.22,1.486-7.339,4.454-12.349
    c1.18-1.972,2.532-3.894,4.059-5.775c1.526-1.879,2.969-3.5,4.333-4.867c1.362-1.364,3.162-3.065,5.399-5.1
    c2.236-2.035,3.763-3.435,4.577-4.195c4.066-9.129,6.995-16.111,8.786-20.945c-3.823,4.476-7.16,8.147-10.005,11.011
    c-2.848,2.863-5.462,5.067-7.841,6.61c-2.379,1.545-4.525,2.315-6.438,2.315c-2.074,0-3.987-1.822-5.734-5.469
    c-1.75-3.649-2.625-7.396-2.625-11.243c0-1.793,0.376-3.67,1.128-5.639c0.752-1.97,1.932-4.074,3.54-6.311
    c1.607-2.238,3.651-4.532,6.132-6.881c2.48-2.35,5.39-4.643,8.726-6.879c6.305-4.343,11.206-6.514,14.706-6.514
    c2.602,0,3.905,1.052,3.905,3.155c0,2.909-2.828,5.75-8.481,8.526c-3.458,1.655-6.886,3.847-10.281,6.576
    c-3.397,2.731-6.143,5.629-8.237,8.693c-2.096,3.066-3.143,5.83-3.143,8.291c0,1.207,0.264,2.17,0.793,2.886
    c0.528,0.717,1.221,1.076,2.075,1.076c1.423,0,3.051-0.717,4.88-2.15c1.831-1.431,4.537-3.959,8.116-7.585
    c1.625-1.655,3.792-4.33,6.499-8.021c2.704-3.691,4.942-6.512,6.711-8.458c1.77-1.946,3.366-2.92,4.79-2.92
    c0.814,0,1.474,0.278,1.983,0.84c0.508,0.559,0.763,1.376,0.763,2.449c0,2.059-0.742,5.045-2.228,8.962
    c-1.485,3.915-4.158,10.324-8.024,19.23l14.766-11.812V346.445z"/>
  <path fill="#654427" d="M298.284,341.813v4.497c-2.685,2.687-4.841,4.477-6.468,5.372c-1.626,0.893-3.965,1.251-7.016,1.071
    c-5.288,6.892-9.946,10.339-13.974,10.339c-2.278,0-4.354-0.828-6.224-2.484c-1.871-1.655-3.367-3.915-4.485-6.779
    c-1.12-2.863-1.678-6.064-1.678-9.6c0-2.863,0.863-6.041,2.593-9.532c1.729-3.49,3.966-6.746,6.711-9.767
    c2.746-3.02,5.684-5.46,8.818-7.315c3.131-1.857,6.039-2.786,8.725-2.786c1.912,0,3.417,0.323,4.516,0.973
    c1.098,0.65,1.646,1.556,1.646,2.719c0,0.895-0.467,1.924-1.404,3.088c1.546,0.358,2.604,0.951,3.173,1.779
    c0.571,0.828,0.855,2.338,0.855,4.53c0,2.147-0.458,4.856-1.373,8.123c-0.916,3.266-2.167,6.332-3.752,9.196l1.096,1.208h0.916
    c0.691,0,1.374-0.189,2.044-0.569c0.671-0.382,1.272-0.783,1.8-1.209C295.333,344.241,296.494,343.289,298.284,341.813z
     M285.715,324.159c-3.378,2.237-6.265,4.263-8.665,6.077c-2.402,1.811-4.435,3.646-6.102,5.502
    c-1.67,1.856-2.787,3.727-3.357,5.604c-1.016,5.013-1.525,7.722-1.525,8.123c0,2.954,1.871,4.43,5.613,4.43
    c1.749,0,4.678-1.655,8.788-4.966c-0.692-2.104-1.038-4.116-1.038-6.042c0-2.819,0.529-5.696,1.587-8.625
    C282.073,331.33,283.64,327.963,285.715,324.159z"/>
  <path fill="#654427" d="M339.286,329.798c-7.159,8.771-10.74,14.88-10.74,18.327c0,1.922,0.712,2.886,2.139,2.886
    c1.178,0,2.716-0.685,4.607-2.049s4.848-3.793,8.876-7.283v4.632c-5.777,6.265-10.21,10.785-13.303,13.559
    c-3.091,2.775-5.613,4.162-7.563,4.162c-3.336,0-5.004-2.413-5.004-7.249c0-1.431,0.204-2.842,0.61-4.228
    c0.406-1.39,0.965-2.831,1.679-4.33c0.709-1.499,1.797-3.647,3.262-6.444s3.151-5.965,5.064-9.499
    c-2.32,1.297-5.228,3.872-8.724,7.72c-2.28,2.417-4.211,4.71-5.796,6.881c-1.588,2.171-3.286,4.587-5.095,7.25
    c-1.812,2.662-3.134,4.452-3.967,5.369c-0.833,0.918-1.679,1.377-2.532,1.377c-1.302,0-2.501-1.497-3.6-4.498
    c-1.098-2.997-1.647-6.488-1.647-10.471c0-2.462,0.252-4.386,0.763-5.774c0.508-1.386,1.514-3.355,3.019-5.906
    c2.808-4.743,5.228-8.223,7.263-10.438c2.034-2.216,3.986-3.324,5.857-3.324c1.301,0,2.348,0.247,3.141,0.738
    c0.795,0.494,1.19,1.255,1.19,2.283c0,0.448-0.121,0.917-0.365,1.409c-0.244,0.492-0.519,0.94-0.825,1.342
    c-0.305,0.404-0.944,1.188-1.921,2.351c-6.429,7.831-9.641,12.91-9.641,15.237c0,1.299,0.386,1.945,1.159,1.945
    c0.489,0,1.434-0.859,2.836-2.583c1.404-1.723,3.212-3.982,5.432-6.779c2.217-2.796,4.84-5.718,7.872-8.76
    c3.03-3.044,6.475-5.975,10.338-8.792c2.157-1.658,3.948-2.485,5.37-2.485c0.651,0,1.295,0.984,1.924,2.952
    c0.632,1.97,0.945,3.963,0.945,5.976C341.91,326.285,341.035,327.784,339.286,329.798z"/>
  <path fill="#654427" d="M372.967,341.948v4.899c-3.944,5.595-7.627,9.811-11.044,12.653s-6.324,4.265-8.726,4.265
    c-3.335,0-5.815-1.926-7.443-5.775c-1.626-3.848-2.442-8.055-2.442-12.618c0-1.745,0.164-3.412,0.49-5.001s0.713-2.899,1.158-3.927
    c0.448-1.029,1.282-2.642,2.503-4.835c5.776-9.888,11.063-14.834,15.862-14.834c2.482,0,3.724,1.052,3.724,3.154
    c0,1.432-0.801,3.67-2.407,6.714c-1.609,3.043-3.042,5.213-4.304,6.51c-3.538,3.76-5.847,6.38-6.924,7.855
    c-1.078,1.476-1.619,3.153-1.619,5.034c0,1.61,0.548,2.954,1.646,4.028c1.1,1.074,2.522,1.611,4.272,1.611
    c1.91,0,4.02-0.771,6.316-2.316C366.328,347.822,369.306,345.349,372.967,341.948z M368.818,311.941
    c-1.017,0-1.98-0.424-2.896-1.274c-0.915-0.85-1.375-1.925-1.375-3.222c0-1.97,0.854-4.163,2.562-6.579
    c1.709-2.416,3.479-3.625,5.309-3.625c1.222,0,2.238,0.415,3.052,1.243c0.813,0.827,1.219,2.023,1.219,3.591
    c0,1.924-0.834,4.051-2.5,6.376C372.521,310.779,370.73,311.941,368.818,311.941z"/>
  <path fill="#654427" d="M379.559,329.932c6.181-6.176,12.183-10.762,18.001-13.761c5.813-2.997,10.311-4.497,13.482-4.497
    c0.854,0,1.647,0.392,2.38,1.175c0.731,0.783,1.314,1.69,1.742,2.719c0.427,1.029,0.639,1.79,0.639,2.281
    c0,0.806-0.284,1.399-0.855,1.779c-0.569,0.38-1.565,0.839-2.988,1.377c0.284,0.717,0.65,1.633,1.099,2.751
    c0.444,1.119,0.792,2.026,1.036,2.719s0.367,1.31,0.367,1.848c0,1.073-0.986,3.075-2.958,6.006
    c-1.975,2.934-3.356,5.094-4.15,6.477c-0.792,1.389-1.189,3.09-1.189,5.104c0,3.311,1.381,4.966,4.147,4.966
    c2.849,0,7.301-2.93,13.363-8.792v4.094c-10.292,12.575-17.654,18.864-22.09,18.864c-1.585,0-2.713-0.57-3.384-1.714
    c-0.67-1.14-1.01-2.831-1.01-5.068c0-3.535,1.16-8.659,3.479-15.371c-5.939,7.25-10.353,12.406-13.24,15.473
    c-2.89,3.065-5.269,4.598-7.139,4.598c-0.896,0-2.014-0.851-3.356-2.55c-1.343-1.701-2.531-3.903-3.568-6.612
    c-1.037-2.708-1.558-5.516-1.558-8.424c0-2.104,0.183-3.86,0.549-5.271c0.365-1.408,1.079-2.852,2.136-4.33
    C375.551,334.295,377.239,332.349,379.559,329.932z M408.784,322.549c-10.577,5.324-18.109,9.845-22.604,13.559
    c-4.494,3.715-6.745,7.541-6.745,11.479c0,1.432,0.226,2.607,0.673,3.523c0.446,0.918,1.059,1.377,1.83,1.377
    c0.446,0,1.241-0.313,2.382-0.938c4.27-2.775,8.176-6.39,11.715-10.844C399.572,336.253,403.821,330.201,408.784,322.549z"/>
  <path fill="#654427" d="M504.339,294.222c1.099-0.315,2.208-0.627,3.329-0.939c1.117-0.314,2.255-0.583,3.416-0.806
    c1.157-0.225,2.286-0.337,3.384-0.337c2.359,0,4.386,0.582,6.072,1.746c1.688,1.163,2.95,2.74,3.784,4.732
    c0.833,1.99,1.251,4.151,1.251,6.478c0,3.625-0.6,7.775-1.801,12.452c-1.2,4.677-2.921,9.432-5.158,14.264
    c-2.236,4.833-4.861,9.398-7.872,13.694c-4.107,5.818-9.037,10.506-14.795,14.062c-5.754,3.559-11.035,5.337-15.835,5.337
    c-3.538,0-6.66-1.062-9.363-3.188c-2.705-2.126-4.821-5.213-6.348-9.265c-1.523-4.05-2.289-8.805-2.289-14.265
    c0-7.339,1.823-14.688,5.463-22.052c3.641-7.36,8.239-14.029,13.79-20.002c5.553-5.976,11.156-10.764,16.809-14.366
    c5.656-3.602,10.251-5.403,13.79-5.403c2.887,0,5.106,0.974,6.65,2.92c1.547,1.947,2.99,5.09,4.332,9.431
    c-3.783,0.136-7.076,0.639-9.884,1.51C510.258,291.101,507.35,292.431,504.339,294.222z M488.963,307.848
    c-2.849,3.357-5.724,7.688-8.631,12.988c-2.91,5.304-5.261,10.505-7.053,15.608c-1.789,5.102-2.683,8.995-2.683,11.681
    c0,6.667,2.826,10,8.479,10c3.947,0,9.043-2.931,15.287-8.793c6.243-5.863,11.676-12.922,16.292-21.179
    c4.617-8.257,6.925-15.763,6.925-22.521c0-4.967-1.793-7.449-5.369-7.449c-2.769,0-6.143,1.207-10.129,3.624
    c-3.987,2.417-7.812,5.839-11.472,10.27c-1.305,1.612-3.887,5.549-7.751,11.816C483.591,319.686,485.627,314.336,488.963,307.848z"
    />
  <path fill="#654427" d="M559.01,341.948v4.899c-3.944,5.595-7.628,9.811-11.043,12.653c-3.419,2.843-6.328,4.265-8.725,4.265
    c-3.336,0-5.818-1.926-7.446-5.775c-1.626-3.848-2.441-8.055-2.441-12.618c0-1.745,0.164-3.412,0.489-5.001
    c0.326-1.589,0.711-2.899,1.159-3.927c0.448-1.029,1.281-2.642,2.503-4.835c5.775-9.888,11.062-14.834,15.865-14.834
    c2.482,0,3.722,1.052,3.722,3.154c0,1.432-0.803,3.67-2.41,6.714c-1.605,3.043-3.04,5.213-4.303,6.51
    c-3.538,3.76-5.846,6.38-6.926,7.855c-1.077,1.476-1.617,3.153-1.617,5.034c0,1.61,0.55,2.954,1.646,4.028
    c1.1,1.074,2.523,1.611,4.273,1.611c1.912,0,4.019-0.771,6.317-2.316C552.37,347.822,555.35,345.349,559.01,341.948z
     M554.862,311.941c-1.019,0-1.981-0.424-2.897-1.274c-0.913-0.85-1.376-1.925-1.376-3.222c0-1.97,0.855-4.163,2.562-6.579
    c1.711-2.416,3.479-3.625,5.31-3.625c1.221,0,2.237,0.415,3.051,1.243c0.813,0.827,1.22,2.023,1.22,3.591
    c0,1.924-0.833,4.051-2.5,6.376C558.563,310.779,556.774,311.941,554.862,311.941z"/>
  <path fill="#654427" d="M587.627,341.21v4.967c-8.502,12.396-15.418,18.594-20.745,18.594c-2.889,0-5.153-1.731-6.8-5.202
    c-1.648-3.468-2.475-8.02-2.475-13.659c0-4.566,0.977-9.989,2.929-16.279c1.953-6.287,4.567-12.665,7.843-19.13
    c3.273-6.467,6.671-12.105,10.189-16.916c3.518-4.813,6.78-8.179,9.791-10.104c1.221-0.807,2.177-1.208,2.87-1.208
    c0.854,0,1.423,0.413,1.706,1.242c0.284,0.826,0.427,2.248,0.427,4.262c0,6.222-2.297,13.86-6.894,22.924
    c-4.597,9.062-11.004,18.313-19.22,27.757c-0.409,2.327-0.611,4.117-0.611,5.37c0,2.866,0.562,5.191,1.678,6.981
    c1.121,1.79,2.676,2.686,4.667,2.686c1.019,0,2.117-0.438,3.297-1.311c1.179-0.872,2.42-1.957,3.72-3.254
    C581.303,347.631,583.844,345.058,587.627,341.21z M569.386,329.125c2.113-2.281,4.159-4.877,6.131-7.783
    c1.974-2.91,3.834-6.019,5.584-9.331c1.749-3.312,3.122-6.289,4.118-8.93c0.998-2.64,1.494-4.631,1.494-5.974
    c0-1.028-0.325-1.544-0.977-1.544c-0.244,0-0.713,0.246-1.403,0.738c-2.481,2.238-5.268,6.612-8.36,13.124
    C572.882,315.936,570.686,322.504,569.386,329.125z"/>
  <path fill="#654427" d="M586.835,343.827v-1.611c10.494-12.172,17.716-20.696,21.66-25.575c0.895-5.503,3.052-8.256,6.468-8.256
    c0.853,0,1.77,0.269,2.747,0.805l0.364,1.276c-0.161,0.537-0.241,1.298-0.241,2.283c0,0.848,0.296,2.427,0.885,4.732
    c0.591,2.305,1.046,4.24,1.372,5.807s0.486,3.334,0.486,5.302c0,2.953-0.607,5.784-1.829,8.491
    c-1.219,2.707-2.99,5.303-5.308,7.787c-2.32,2.484-5.31,5.023-8.97,7.619c1.462,0.267,2.622,0.403,3.479,0.403
    c1.666,0,3.467-0.459,5.399-1.376c1.934-0.918,3.906-2.148,5.919-3.692c2.012-1.544,4.361-3.547,7.046-6.009v4.497
    c-5.207,5.594-9.863,9.835-13.972,12.719c-4.108,2.889-7.647,4.332-10.618,4.332c-3.823,0-7.362-1.79-10.616-5.371
    c-1.911-2.147-3.101-4.206-3.568-6.175C587.068,349.847,586.835,347.184,586.835,343.827z M609.594,333.559l-1.099-9.803
    c-2.521,3.133-7.91,9.151-16.168,18.058c2.439,0.582,4.106,1.366,5.002,2.349c0.896,0.985,2.156,2.888,3.785,5.707
    c2.764-1.255,4.892-2.966,6.377-5.135c1.485-2.172,2.225-5.135,2.225-8.895c0-0.447-0.007-0.852-0.028-1.209
    S609.635,333.916,609.594,333.559z"/>
</g>
</svg>